PathFileType	4	(X/Y/Z)	S01_0006_Gait_markers.trc
DataRate	CameraRate	NumFrames	NumMarkers	Units	OrigDataRate	OrigDataStartFrame	OrigNumFrames
250.000000	250.000000	4	54	mm	250.000000	117	314
Frame#	Time	HEAD_ANT			R_HEAD			L_HEAD			C7			R_BACK			L_BACK			STERNUM			R_ACROMION			R_HUM_PROX			R_HUM_ANT			R_HUM_POST			R_ELBOW_LAT			R_ELBOW_MED			R_FOREARM			R_WIRST_LAT			R_WRITS_MED			R_HAND			L_ACROMION			L_HUM_PROX			L_HUM_ANT			L_HUM_POST			L_ELBOW_LAT			L_ELBOW_MED			L_FOREARM			L_WRIST_LAT			L_WIRST_MED			L_HAND			R_ILIAC			SACRUM			L_ILIAC			R_GTROCH			R_THIGH__1			R_THIGH_2			R_THIGH_3			R_THIGH_4			R_SHANK_1			R_SHANK_2			R_SHANK_3			R_SHANK_4			R_HEEL			R_FOOT_LAT			R_FOOT_MED			L_GTROCH			L_THIGH_1			L_THIGH_2			L_THIGH_3			L_THIGH_4			L_SHANK_1			L_SHANK_2			L_SHANK_3			L_SHANK_4			L_HEEL			L_FOOT_LAT			L_FOOT_MED			
		X1	Y1	Z1	X2	Y2	Z2	X3	Y3	Z3	X4	Y4	Z4	X5	Y5	Z5	X6	Y6	Z6	X7	Y7	Z7	X8	Y8	Z8	X9	Y9	Z9	X10	Y10	Z10	X11	Y11	Z11	X12	Y12	Z12	X13	Y13	Z13	X14	Y14	Z14	X15	Y15	Z15	X16	Y16	Z16	X17	Y17	Z17	X18	Y18	Z18	X19	Y19	Z19	X20	Y20	Z20	X21	Y21	Z21	X22	Y22	Z22	X23	Y23	Z23	X24	Y24	Z24	X25	Y25	Z25	X26	Y26	Z26	X27	Y27	Z27	X28	Y28	Z28	X29	Y29	Z29	X30	Y30	Z30	X31	Y31	Z31	X32	Y32	Z32	X33	Y33	Z33	X34	Y34	Z34	X35	Y35	Z35	X36	Y36	Z36	X37	Y37	Z37	X38	Y38	Z38	X39	Y39	Z39	X40	Y40	Z40	X41	Y41	Z41	X42	Y42	Z42	X43	Y43	Z43	X44	Y44	Z44	X45	Y45	Z45	X46	Y46	Z46	X47	Y47	Z47	X48	Y48	Z48	X49	Y49	Z49	X50	Y50	Z50	X51	Y51	Z51	X52	Y52	Z52	X53	Y53	Z53	X54	Y54	Z54	

118	0.468	894.23486328125	1736.907470703125	-298.5092163085934	836.35986328125	1682.342041015625	-223.3716583251949	834.6428833007812	1692.537231445312	-370.9474182128902	693.631103515625	1521.81201171875	-306.1481323242184	613.7650756835938	1328.0595703125	-241.0184631347653	612.2373046875	1331.095092773438	-378.289123535156	862.7144165039062	1351.397338867188	-310.9781799316403	770.5980224609375	1466.565795898438	-136.9840240478512	740.6756591796875	1307.645629882812	-44.78552627563447	807.742919921875	1226.1474609375	-45.78733825683567	687.4231567382812	1220.521850585938	-27.09239768981907	743.4075317382812	1117.66943359375	-23.1804752349851	710.7246704101562	1110.916625976562	-100.4671707153318	879.6506958007812	958.7675170898438	-44.43149566650369	927.4248046875	906.0533447265625	-91.44902801513652	870.8771362304688	865.3887329101562	-48.68085098266582	958.2068481445312	821.1376953125	-40.7813186645506	765.743408203125	1477.7646484375	-475.8569946289059	719.67236328125	1315.24658203125	-571.5827636718747	773.6551513671875	1229.274658203125	-579.0742187499998	650.5133666992188	1243.689453125	-590.3830566406248	697.06787109375	1135.067016601563	-605.9955444335935	653.3131103515625	1132.341796875	-542.6499023437498	795.0010986328125	954.1538085937501	-604.1076660156248	833.6945190429688	893.3340454101564	-557.2751464843748	776.7653198242188	871.9940795898439	-610.0496826171873	851.790283203125	811.9162597656251	-606.478088378906	748.106201171875	1071.732788085938	-140.7059020996091	625.0234985351562	1045.330200195312	-315.3553771972654	743.222412109375	1066.241577148438	-485.4766845703123	692.661865234375	935.4797973632812	-130.0875701904295	667.3954467773438	662.1281127929688	-156.5803375244139	725.89111328125	665.1368408203125	-151.1871490478514	707.902099609375	564.7962646484375	-186.6401824951171	646.287109375	584.4503173828125	-178.2765655517577	570.862548828125	362.1226806640626	-184.3072357177734	619.9404296875	330.2596740722657	-200.1383056640624	596.3507080078125	249.8500366210938	-221.8431396484374	536.0728759765625	269.5657653808594	-211.1133880615234	450.3256225585938	79.01618957519538	-302.4927062988281	600.8260498046875	20.12054252624516	-212.0036010742188	664.3648071289062	29.3601150512696	-309.3617858886719	721.2676391601562	948.6483764648439	-495.1889038085935	907.7218627929688	699.0868530273439	-486.4404907226561	850.6820068359375	696.5456542968751	-503.3721923828123	875.5917358398438	596.8343505859376	-472.6132202148436	934.2063598632812	623.0648193359376	-463.6386413574218	942.8040161132812	347.4049377441407	-463.7574768066406	887.4688110351562	321.6056518554689	-462.3828735351562	892.8351440429688	235.3079071044923	-445.8289794921874	955.4387817382812	247.2480926513673	-442.9435424804687	875.740966796875	43.68999099731454	-371.1712341308594	1047.762451171875	38.86016082763682	-450.1056518554688	1085.9521484375	57.09624862670906	-359.6701965332031	
119	0.472	899.98828125	1735.890869140625	-299.0278625488277	842.1375122070312	1681.263793945312	-223.9716949462887	840.5672607421875	1691.515869140625	-371.3602294921871	699.3423461914062	1521.105590820312	-306.836517333984	619.2146606445312	1327.322998046875	-241.3255462646482	617.8135986328125	1330.21240234375	-378.6039123535153	868.8784790039062	1350.043212890625	-312.1371154785153	776.2996215820312	1465.71484375	-137.5843353271481	746.8168334960938	1306.826171875	-45.18557357788057	813.9520874023438	1225.333740234375	-46.52864837646457	693.7701416015625	1219.679443359375	-27.44357681274387	749.6822509765625	1116.868530273438	-23.39094543457006	716.88671875	1110.071533203125	-100.7772216796873	886.0560913085938	958.0379028320312	-45.06368255615213	933.6922607421875	905.3780517578125	-92.30895233154277	877.4854736328125	864.7755126953125	-49.07786178588848	964.574951171875	820.4801025390625	-41.91544723510724	771.4304809570312	1476.80078125	-476.4841918945309	725.0814819335938	1314.165405273438	-571.9697265624997	779.0731811523438	1228.024780273438	-579.4345092773435	655.7237548828125	1242.4189453125	-590.7956542968748	702.2371826171875	1133.946533203125	-606.2199096679685	658.6970825195312	1131.248657226563	-542.518371582031	800.3004760742188	952.9243774414064	-603.7044677734373	838.5868530273438	891.9351196289064	-557.5671386718748	781.7877197265625	870.7406616210939	-610.2640991210935	856.6406860351562	810.4765014648439	-606.668518066406	753.71240234375	1070.793334960938	-140.8462219238279	630.46337890625	1044.218627929688	-315.4419250488279	750.4879760742188	1065.703247070312	-485.9562683105466	697.844482421875	934.9417724609375	-130.3027191162107	670.73095703125	662.046630859375	-156.5512237548827	729.1453857421875	665.0411376953125	-151.3779907226561	710.6802978515625	564.623046875	-186.5751190185546	649.32861328125	584.2793579101562	-178.6099243164061	572.4306030273438	362.4417114257813	-184.5631103515624	621.3112182617188	330.4144592285157	-200.2238769531249	597.8775634765625	250.0952453613282	-221.4727478027343	537.2930297851562	270.2473144531251	-211.2871551513671	450.6621704101562	80.0643615722657	-302.8635864257812	600.198486328125	20.16127204895024	-212.7075805664062	664.3877563476562	29.21443176269538	-309.4526672363281	726.6513671875	947.6052246093751	-495.3414306640623	912.3301391601562	697.5992431640626	-486.9881591796873	855.3759765625	695.1599731445314	-503.5339050292967	880.1749267578125	595.5028686523439	-472.3046264648436	938.940673828125	621.9065551757814	-463.4375610351561	952.2598266601562	347.0432128906251	-463.0181579589843	897.5250854492188	320.099334716797	-462.1046447753906	904.5562744140625	234.5465850830079	-446.3487243652343	967.3504028320312	247.2261657714845	-442.7495422363281	892.5003662109375	42.36955261230477	-371.3943786621094	1064.450317382812	40.63986587524424	-450.1360473632812	1102.28271484375	59.90058898925789	-359.8189697265625	
120	0.476	905.836669921875	1734.766723632812	-299.5651550292965	847.8067626953125	1680.178466796875	-224.6206512451168	846.4321899414062	1690.566284179688	-371.894134521484	705.0027465820312	1519.965209960938	-307.4750976562497	624.7352294921875	1326.635620117188	-241.6905975341794	623.2084350585938	1329.395385742188	-379.0670776367185	873.8076171875	1349.073120117188	-311.5751342773435	782.101806640625	1464.757080078125	-138.2051696777341	752.9008178710938	1306.007080078125	-45.72170639038057	820.2559204101562	1224.656616210938	-47.14850997924778	700.0692138671875	1218.780517578125	-27.66531562805149	756.1373291015625	1115.957763671875	-23.94492912292456	722.7337036132812	1109.140991210938	-101.0634689331052	892.391357421875	957.2819213867188	-45.84804534912088	940.0503540039062	904.6290893554688	-92.71169281005839	883.9097290039062	864.0431518554688	-49.54973983764629	970.9692993164062	819.737548828125	-42.60410690307599	777.1376953125	1475.590209960938	-476.9099121093747	730.4417114257812	1312.876220703125	-572.3035278320309	784.3272705078125	1226.760986328125	-579.800354003906	661.1025390625	1241.241333007813	-590.8851928710935	710.2662963867188	1131.68408203125	-605.0933837890623	665.6943359375	1129.5849609375	-542.3511962890623	805.0103759765625	951.2864990234376	-604.261779785156	843.5556640625	890.5322875976564	-558.001525878906	786.6845092773438	869.4860839843751	-610.7973632812498	861.3192138671875	808.9707641601564	-607.1508178710935	759.0496215820312	1070.11474609375	-141.2027435302732	636.1302490234375	1043.017822265625	-315.8165588378904	755.4736938476562	1064.663208007812	-486.2179565429685	703.0834350585938	934.4271850585938	-130.3817138671873	674.1424560546875	662.0696411132812	-156.8045043945311	732.5274047851562	664.77294921875	-151.3817901611327	713.6405029296875	564.400390625	-186.3693389892577	652.3421630859375	584.7686767578125	-178.4342346191405	574.1730346679688	362.9777221679688	-184.5916137695312	622.71484375	330.4436035156251	-200.3097076416015	598.45849609375	250.3169860839844	-221.9319915771484	538.5159301757812	270.8718872070313	-211.4164733886718	450.9884948730469	81.01027679443366	-303.0513610839844	600.2542724609375	20.25671577453618	-212.5472869873047	664.3560180664062	29.00015449523933	-309.3838500976562	732.3130493164062	946.4829711914064	-495.2434082031248	917.2855224609375	696.1594848632814	-486.9628295898436	860.1287231445312	693.5398559570314	-503.2597656249998	884.75439453125	594.0961914062501	-471.6797485351561	943.6600952148438	620.3987426757814	-463.2139587402343	961.6052856445312	346.9338684082032	-463.0158081054687	907.5699462890625	318.5940551757814	-461.7938232421874	916.482421875	233.1439819335938	-445.7349853515624	978.9322509765625	247.3559112548829	-442.7361450195312	908.9273681640625	40.7381134033204	-371.2379760742188	1080.927734375	42.72823715209971	-450.0148620605469	1118.328125	62.92711639404305	-359.8153076171875	
121	0.48	911.6878051757812	1733.66357421875	-300.0945129394527	853.459716796875	1678.966186523438	-225.2586669921871	852.150634765625	1689.498413085938	-372.5089416503902	710.7656860351562	1518.988647460938	-308.1765747070309	630.1859130859375	1325.779907226562	-242.0449218749997	628.6566772460938	1328.446899414062	-379.5143737792966	880.07861328125	1347.699096679688	-313.0879211425778	787.9739990234375	1463.862548828125	-138.8152465820309	758.9548950195312	1305.203735351562	-46.23846435546846	826.4414672851562	1223.918212890625	-47.78051376342746	706.4088745117188	1218.054321289062	-27.86648941040012	762.396484375	1115.269409179688	-24.27853012084936	729.1849365234375	1108.218139648438	-101.4482345581052	898.7533569335938	956.4466552734375	-46.50303268432596	946.189453125	903.68359375	-93.45750427246074	890.25830078125	863.2418823242188	-50.0268783569334	977.3356323242188	818.9580688476562	-43.29222488403302	782.5842895507812	1474.464965820312	-477.6582031249997	735.9678344726562	1311.55224609375	-572.6804199218747	789.9190673828125	1225.595458984375	-580.0819702148435	666.55126953125	1239.953002929688	-591.2745971679685	712.8675537109375	1131.401733398438	-606.4650878906248	671.4307861328125	1128.317504882813	-542.4680175781248	809.990966796875	950.0457763671876	-605.0062866210935	848.6078491210938	889.0689697265626	-558.2265624999998	791.7172241210938	868.0953979492189	-611.106018066406	866.3895874023438	807.5439453125001	-607.3217773437498	764.683349609375	1069.0859375	-141.5271148681638	641.5238647460938	1041.895874023438	-316.0329895019529	761.0599975585938	1063.612670898438	-486.3785095214841	708.3761596679688	933.9187622070312	-130.5160827636717	677.5653076171875	662.0425415039062	-156.8537597656249	736.0230102539062	664.1668090820312	-151.3998870849608	716.3948364257812	564.1455078125	-186.6448364257811	655.489990234375	584.7921752929688	-178.5869293212889	575.7737426757812	363.2182312011719	-184.6726531982421	624.2891235351562	330.4976806640626	-200.3500823974609	599.6390380859375	250.5676879882813	-221.951919555664	539.797607421875	271.6366271972657	-211.4602355957031	451.2987670898438	82.09275054931648	-303.3057556152344	600.1321411132812	20.33862304687505	-212.5998992919922	664.3780517578125	28.93834686279304	-309.3899841308594	737.8023071289062	945.3391113281251	-495.4039001464841	921.857177734375	694.5317993164064	-486.8433532714842	864.869140625	692.1209716796876	-503.0618591308592	889.6507568359375	592.7675170898439	-471.4042358398436	948.3006591796875	618.9127197265626	-463.4778442382811	970.6006469726562	346.7201538085939	-462.7795715332031	917.3403930664062	317.234588623047	-461.4211730957031	928.03564453125	231.9501190185548	-445.6233215332031	990.301025390625	247.5691680908204	-442.6611938476562	925.1320190429688	39.32908630371102	-371.3795776367188	1097.044555664062	45.02585220336924	-450.2411193847656	1134.2412109375	66.13713073730477	-359.7357788085938	
